<svg viewBox="0 0 356.676359287694 354.6875" preserveAspectRatio="xMidYMid meet" xmlns="http://www.w3.org/2000/svg">
  <g transform="matrix(3.56320071837933,0,0,3.56320071837933,-0.00002208786456057133,0.07453634849290029)" fill="#e11d48">
    <path d="M100.1 49.8c0 1.7-1.4 3.4-1.6 5.1s.9 3.6.5 5.3-2.1 3-2.6 4.6.1 3.7-.6 5.3-2.7 2.5-3.6 4-.7 3.7-1.7 5.1-3.2 1.9-4.3 3.2-1.4 3.5-2.7 4.6-3.5 1.2-4.9 2.2-2.1 3.1-3.6 4-3.6.4-5.2 1.1-2.7 2.6-4.3 3.1-3.6-.3-5.3 0-3.2 2-4.9 2.1-3.5-1.1-5.2-1.1-3.5 1.3-5.2 1.1-3.2-1.8-4.9-2.1-3.7.5-5.3 0-2.8-2.4-4.3-3.1-3.9-.3-5.4-1.2-2.2-2.9-3.6-4-3.6-1-4.9-2.2-1.5-3.3-2.7-4.6-3.3-1.8-4.3-3.2-.8-3.6-1.7-5.1-2.9-2.4-3.6-4 0-3.7-.6-5.3-2.3-2.9-2.6-4.6.7-3.6.5-5.3-1.5-3.3-1.5-5 1.4-3.4 1.6-5.1-.9-3.7-.5-5.3 2.1-3 2.6-4.6-.1-3.7.6-5.3 2.7-2.5 3.6-4 .7-3.7 1.7-5.1 3.2-1.9 4.3-3.2 1.4-3.5 2.7-4.6 3.5-1.2 4.9-2.2 2.1-3.1 3.6-4 3.6-.4 5.2-1.1 2.7-2.6 4.3-3.1 3.6.3 5.3 0 3.2-2 4.9-2.2 3.5 1.1 5.2 1.1S53.6-.2 55.3 0s3.2 1.8 4.9 2.1 3.7-.5 5.3 0 2.8 2.4 4.3 3.1 3.7.3 5.2 1.1 2.2 2.9 3.6 4 3.6 1 4.9 2.2 1.5 3.3 2.7 4.6 3.3 1.8 4.3 3.2.8 3.6 1.7 5.1 2.9 2.4 3.6 4 0 3.7.6 5.3 2.3 2.9 2.6 4.6-.7 3.6-.5 5.3 1.6 3.4 1.6 5.2z"/>
  </g>
  <g transform="matrix(3.6221495472831218,0,0,3.6221495472831218,79.16571737647017,31.791710787364728)" fill="#ffffff">
    <path d="M13.36 15.08 c0.24 4.44 -0.76 9.68 -4.2 12.8 c0.48 4.48 0.84 6.24 2.44 10.52 c-0.96 0.96 -3.32 3.04 -4 1.36 c-1.28 -3.12 -1.92 -7.68 -2.36 -10.72 c-0.12 -0.04 -0.28 -0.04 -0.36 -0.08 c-0.44 2.84 -1.12 8.32 -0.96 11.24 c-1.76 0.76 -4.32 0 -4.24 -1.32 c0.32 -6.32 1.92 -14.44 3.36 -21.44 c0.16 -0.8 2.16 -1.92 1.44 -2.32 c-0.84 -0.44 -2.16 0.4 -3.04 0.64 c0.16 -1.12 0.48 -3.36 1.36 -4.88 c0.8 -1.36 4.36 -2.32 6.8 -1.88 c2.8 0.52 3.64 3.56 3.76 6.08 z M8.84 14.8 c-0.2 -0.36 -0.76 -0.24 -1.24 -0.08 c-0.92 3.64 -1.32 6.32 -1.92 10.08 c0.56 0 1.76 -1 2.16 -1.6 c1.08 -1.68 2.68 -5.64 1 -8.4 z M28.738 9.4 c-2.04 8.32 -5.56 21.8 -5.2 29.96 c-1.48 -0.04 -3.44 0 -4.16 -1.28 c-1.48 0.84 -3.4 1.44 -4.52 0.88 c-1.52 -0.8 -2.72 -2.08 -2.68 -5.88 c0.08 -6.8 2.72 -16.44 4.2 -22 c1.16 0.04 3.24 0.4 4.28 1.72 c-1.4 3.92 -2.16 6.76 -2.8 9.92 c-1.36 6.84 -1.68 10.48 -0.52 11.2 c0.56 0.36 1.48 -0.04 2.44 -0.68 c0.88 -8.04 2.76 -16.32 4.44 -23.08 c1.04 -0.64 3.4 -1.52 4.52 -0.76 z M39.236 15.48 c0.04 3.36 -1.16 6.36 -2.92 8.56 c1.56 2.24 2.24 4.2 0.96 8.4 c-1.04 3.44 -4.12 7.08 -7.6 7.6 l0 0.04 c-1.32 0.12 -4.2 -0.28 -4.04 -2.08 c0.56 -6.72 1.8 -13 3.32 -20.12 c0.16 -0.72 1.68 -1.68 1.64 -2.4 s-2.24 0.2 -3.68 0.92 c0.32 -1.92 0.6 -4.4 2.08 -5.52 c1.48 -1.16 4.2 -1.96 6.44 -1.4 c2.56 0.6 3.8 3.32 3.8 6 z M34.756 15.4 c-0.2 -0.32 -0.88 -0.4 -1.36 -0.28 c-0.96 3.84 -1.04 4.4 -1.72 8.36 c0.56 -0.16 1.6 -0.68 2 -1.2 c0.8 -1.12 2.44 -4.48 1.08 -6.88 z M33.876 29.4 c0 -0.68 -0.52 -1.56 -1.12 -2.24 c-0.4 0.2 -1.24 0.64 -1.84 0.68 c-0.28 1.72 -0.68 4.48 -0.92 7.08 c2.76 -0.16 3.8 -3 3.88 -5.52 z M54.894 9.6 c-2.72 6.24 -7.6 21.56 -8.56 30.4 c-1.72 0.48 -4.04 0 -3.88 -2.64 s0.76 -5.28 1.36 -7.88 c-2.88 -0.6 -3.84 -2.68 -4.36 -4.92 c-0.52 -2.36 0.68 -9.84 2.12 -12.48 c0.56 -1 3.24 -1.96 4.96 -1.08 c-1.04 2.72 -3.28 8.44 -2.92 11.64 c0.12 1.2 0.64 1.56 1.52 1.72 c1.4 -4.96 3.16 -9.68 4.88 -13.8 c0.92 -2.16 3.16 -1.88 4.88 -0.96 z"/>
  </g>
  <g transform="matrix(3.2452599272532616,0,0,3.2452599272532616,78.7899383621715,158.90559432356818)" fill="#ffffff">
    <path d="M13.44 15.68 c0.04 4.8 -1.12 10.52 -4.48 14.4 c-0.84 0.96 -3.28 2.04 -4.36 1.6 c-0.48 3 -0.96 5.68 -1 8.8 c-0.88 0.2 -3.96 -0.56 -3.84 -2.08 c0.68 -7.52 1.88 -13.48 3.44 -20.72 c0.16 -0.68 1.88 -1.68 1.6 -2.44 c-0.28 -0.8 -2.16 0.12 -3.04 0.36 c0.28 -0.96 0.6 -3.04 1.52 -4.64 c0.76 -1.36 4.12 -2.2 6.4 -1.64 c2.56 0.6 3.72 3.68 3.76 6.36 z M9 15.04 c-0.2 -0.36 -0.84 -0.32 -1.2 0.08 c-0.96 3.84 -1.56 7.8 -2.24 11.8 c0.72 0.28 1.72 -0.6 2 -1.2 c1.48 -3.2 2.88 -7.72 1.44 -10.68 z M24.458 11.88 c2.28 7.8 0.12 16.84 -2.96 22.96 c-1.04 2.12 -2.64 4.48 -5.32 4.48 c-1.4 0 -2.76 -1.12 -3.16 -2.2 c-1.72 -4.56 -0.92 -11 0.28 -15.92 c0.8 -3.44 2.12 -6.72 3.92 -9.72 c0.92 -1.44 2.48 -2.44 4.08 -2.32 c1.48 0.12 2.8 1.4 3.16 2.72 z M21.338 22.6 c0.28 -2.08 0.36 -5.4 -0.48 -6.6 c-0.28 -0.44 -1.12 -0.16 -1.44 0.4 c-2.68 4.76 -3.88 10.8 -3.16 16.44 c0.12 0.92 0.8 0.8 1.16 0.4 c1.8 -1.96 3.44 -6.8 3.92 -10.64 z M37.898 12.96 c2.12 4.76 1.12 10.4 -0.08 15.32 c-0.8 3.44 -2.12 6.68 -3.92 9.68 c-0.92 1.48 -2.48 2.48 -4.08 2.36 c-1.52 -0.16 -2.8 -1.4 -3.2 -2.72 c-2.24 -7.8 -0.08 -16.24 3 -22.4 c1.04 -2.08 2.64 -4.44 5.28 -4.44 c1.44 0 2.52 1.16 3 2.2 z M34.898 17.36 c-0.12 -0.92 -0.8 -0.8 -1.16 -0.4 c-1.8 1.96 -3.48 6.8 -3.96 10.64 c-0.24 2.08 -0.32 5.4 0.52 6.6 c0.28 0.44 1.08 0.16 1.4 -0.4 c2.68 -4.76 3.92 -10.8 3.2 -16.44 z M46.476 33.44 c0 1.28 -0.24 3.2 -1.68 4.48 c-1.56 1.4 -3.92 1.84 -5.88 1.92 c-1.12 0.04 -1.56 -0.44 -1.52 -1.4 c0.4 -9.16 3.12 -23.16 4.48 -27.48 c0.56 -1.8 3.2 -1.12 4.4 0.8 c-1.44 4.92 -4.36 16.48 -4.56 22.32 c1.48 -0.16 3.32 -0.56 4.76 -0.64 z M61.374 9.04 c0.12 1.04 -0.76 4.32 -2.04 4.88 c-1.04 0.44 -2.84 0.24 -4.12 0.8 c-0.6 1.28 -1.48 4.4 -1.64 6.72 c1.24 -0.2 3.12 -0.96 4.4 -0.96 c0.4 1.76 -0.92 3.92 -2.08 4.72 c-0.64 0.44 -2.2 0.72 -3 1.04 c-0.64 2.16 -1.08 6.56 -1.24 8.16 c1.08 0 2.92 -0.64 4.52 -1.12 c0.4 1.92 -0.72 4.32 -1.56 5 c-1.56 1.24 -4.8 1.96 -6.68 1.56 c-0.56 -0.12 -1.16 -0.8 -1.08 -1.52 c0.64 -7.04 1.88 -13.52 3.36 -20.16 c0.28 -1.28 2.12 -2 2.16 -2.8 c0.04 -0.84 -3.08 0.68 -3.84 0.64 c0.04 -1.44 1.16 -3.88 2.2 -4.92 c1.2 -1.16 8.88 -2.44 10.64 -2.04 z"/>
  </g>
</svg>
